<svg xmlns="http://www.w3.org/2000/svg" xmlns:xlink="http://www.w3.org/1999/xlink" width="1280" height="1280" viewBox="0 0 1280 1280"><defs><clipPath id="b"><path d="M99.619 1336.934s112.138-324.377 1091.832-519.166c136.332-216.68 215.206-473.15 215.206-748.052 0-776.87-629.781-1406.65-1406.657-1406.65s-1406.657 629.78-1406.657 1406.65c0 547.21 312.47 1021.43 768.702 1253.991l25.967 12.983z" fill="#fff"/></clipPath><clipPath id="c"><use height="100%" width="100%" xlink:href="#a"/></clipPath></defs><g transform="matrix(.26657 0 0 .2667 640 608.845)" clip-path="url(#b)"><path fill="#009b3a" d="M-2100-1470h4200v2940h-4200z"/><path d="M-1743 0L0 1113 1743 0 0-1113z" fill="#fedf00"/><circle r="735" id="a" fill="#002776"/><path clip-path="url(#c)" d="M-2205 1470a1785 1785 0 0 1 3570 0h-105a1680 1680 0 1 0-3360 0z" fill="#fff"/><g transform="translate(-420 1470)" fill="#009b3a"><g transform="rotate(-7)"><use transform="translate(0 -1697.5)" xlink:href="#b" width="100%" height="100%"/><use transform="rotate(3 32412.452 848.747)" xlink:href="#i" width="100%" height="100%"/><use transform="rotate(6 16195.115 848.75)" xlink:href="#j" width="100%" height="100%"/><use transform="rotate(9 10784.39 848.75)" xlink:href="#k" width="100%" height="100%"/><use transform="rotate(12 8075.317 848.75)" xlink:href="#l" width="100%" height="100%"/></g><use transform="rotate(9.75 9951.26 848.75)" xlink:href="#m" width="100%" height="100%"/><g transform="rotate(14.5)"><use transform="translate(0 -1697.5)" xlink:href="#a" width="100%" height="100%"/><use transform="rotate(3 32412.452 848.747)" xlink:href="#i" width="100%" height="100%"/><use transform="rotate(6 16195.115 848.75)" xlink:href="#b" width="100%" height="100%"/><use transform="rotate(9 10784.39 848.75)" xlink:href="#n" width="100%" height="100%"/><use transform="rotate(12 8075.317 848.75)" xlink:href="#i" width="100%" height="100%"/><use transform="rotate(15 6446.896 848.75)" xlink:href="#k" width="100%" height="100%"/><use transform="rotate(18 5358.797 848.75)" xlink:href="#o" width="100%" height="100%"/><use transform="rotate(21 4579.445 848.75)" xlink:href="#o" width="100%" height="100%"/><use transform="rotate(24 3993.055 848.75)" xlink:href="#b" width="100%" height="100%"/></g></g><g fill="#fff"><use transform="translate(-600 -132)" xlink:href="#p" width="100%" height="100%"/><use transform="translate(-535 177)" xlink:href="#p" width="100%" height="100%"/><use transform="translate(228 -228)" xlink:href="#p" width="100%" height="100%"/><use transform="translate(515 258)" xlink:href="#p" width="100%" height="100%"/><use transform="translate(617 265)" xlink:href="#q" width="100%" height="100%"/><use transform="translate(545 323)" xlink:href="#r" width="100%" height="100%"/><use transform="translate(368 477)" xlink:href="#r" width="100%" height="100%"/><use transform="translate(367 551)" xlink:href="#q" width="100%" height="100%"/><use transform="translate(441 419)" xlink:href="#q" width="100%" height="100%"/><use transform="translate(500 382)" xlink:href="#r" width="100%" height="100%"/><use transform="translate(365 405)" xlink:href="#q" width="100%" height="100%"/><use transform="translate(-280 30)" xlink:href="#r" width="100%" height="100%"/><use transform="translate(200 -37)" xlink:href="#q" width="100%" height="100%"/><use transform="translate(0 330)" xlink:href="#p" width="100%" height="100%"/><use transform="translate(85 184)" xlink:href="#r" width="100%" height="100%"/><use transform="translate(0 118)" xlink:href="#r" width="100%" height="100%"/><use transform="translate(-74 184)" xlink:href="#q" width="100%" height="100%"/><use transform="translate(-37 235)" xlink:href="#s" width="100%" height="100%"/><use transform="translate(220 495)" xlink:href="#r" width="100%" height="100%"/><use transform="translate(283 430)" xlink:href="#q" width="100%" height="100%"/><use transform="translate(162 412)" xlink:href="#q" width="100%" height="100%"/><use transform="translate(-295 390)" xlink:href="#p" width="100%" height="100%"/><use transform="translate(0 575)" xlink:href="#t" width="100%" height="100%"/></g></g><path d="M1223.118 627.438c0-322.203-261.073-583.4-583.122-583.4-322.047 0-583.12 261.197-583.12 583.4-.079 75.013 13.259 147.535 41.78 217.239 0 0 60.692-76.254 150.696 53.186 0 0 35.004-30.432 148.282 54.192-98.71-73.89-162.6-191.788-162.6-324.617 0-223.76 181.308-405.156 404.962-405.156 223.656 0 404.965 181.395 404.965 405.156 0 69.062-17.278 134.084-47.734 190.986a405.563 405.563 0 0 1-22.306 36.826v.004s-210.865 22.913-289.617 128.903c0 0 .94 15.946-172.505 12.195 0 0-17.631-.535-39.618 1.355l-.51.045c-.472.04-.944.083-1.419.128l-.517.047c-.63.058-1.263.118-1.899.18l-.035.004c-.616.06-1.236.125-1.858.189a352.843 352.843 0 0 0-2.015.218c-.168.017-.333.037-.498.054-.647.074-1.297.148-1.948.226l-.169.02c-.587.07-1.176.141-1.767.215l-.565.072c-.504.064-1.009.13-1.514.197l-.482.064c-.657.087-1.316.177-1.977.27-.082.011-.165.025-.247.037-.573.08-1.147.163-1.72.249a408.432 408.432 0 0 0-2.1.32l-.483.077c-.655.105-1.31.21-1.966.319l-.36.062a216.056 216.056 0 0 0-2.203.383c-.515.091-1.029.185-1.542.278-.153.03-.307.056-.458.085-.653.123-1.305.247-1.956.376l-.39.078c-.527.105-1.054.211-1.579.32l-.58.121c-.518.107-1.033.218-1.546.33-.14.032-.282.06-.422.092-.641.14-1.28.286-1.918.434-.148.033-.294.068-.44.103-.505.116-1.007.237-1.508.36-.189.044-.375.09-.564.136-.52.13-1.042.26-1.56.392-.12.031-.24.06-.358.092-.628.163-1.254.33-1.876.5-.151.04-.301.083-.453.124-.482.132-.96.268-1.438.404l-.552.158c-.523.152-1.042.307-1.559.463l-.29.087c-.604.185-1.205.374-1.801.566-.16.05-.317.103-.475.154-.453.148-.905.297-1.353.45l-.528.178a111.22 111.22 0 0 0-3.478 1.258l-.466.18c-.428.164-.851.332-1.273.5-.165.069-.33.135-.494.201-.519.212-1.034.426-1.543.646-.037.015-.076.03-.115.048a87.26 87.26 0 0 0-1.61.714l-.45.21c-.399.183-.793.37-1.184.558l-.45.218a72.246 72.246 0 0 0-3.445 1.807 58.461 58.461 0 0 0-1.489.86c-.47.28-.935.563-1.392.853l-.093.06c-.424.27-.84.547-1.25.825-.13.087-.258.177-.388.266-.329.228-.654.457-.972.688-.117.086-.236.17-.35.255-.418.31-.83.624-1.233.943-.048.037-.093.076-.141.115a41.396 41.396 0 0 0-2.228 1.918c-.099.09-.198.18-.295.272-.36.34-.712.684-1.052 1.032-.056.057-.107.115-.161.17a33.154 33.154 0 0 0-1.13 1.234 31.82 31.82 0 0 0-.709.84c-.076.096-.155.19-.231.284-.294.372-.58.747-.854 1.128-.054.074-.105.15-.157.226-.22.313-.433.628-.641.949a25.151 25.151 0 0 0-.787 1.297c-.055.095-.111.19-.166.288-.223.404-.437.813-.637 1.227-.045.091-.086.185-.129.276a25.67 25.67 0 0 0-.449 1.005c-.054.133-.109.265-.161.397-.136.342-.264.687-.385 1.035-.035.097-.07.19-.103.287-.146.44-.282.885-.404 1.334-.03.107-.053.216-.08.323a25.314 25.314 0 0 0-.338 1.5c-.074.379-.138.762-.193 1.149-.019.093-.03.185-.042.28-.064.474-.113.955-.15 1.44-.02.125-.02.254-.023.378-.022.375-.04.755-.045 1.136v.463c0 .422 0 .85.025 1.281v.255c.027.513.07 1.033.125 1.558a35.106 35.106 0 0 0 .218 1.64l.079.487c.084.478.175.96.282 1.447.02.068.025.136.04.206a36.44 36.44 0 0 0 .555 2.153c.12.428.25.857.39 1.291a45.111 45.111 0 0 0 .75 2.164c.02.043.032.084.047.127.226.595.472 1.196.73 1.802.075.175.154.35.23.526.2.457.41.917.63 1.38.086.185.171.368.26.55.304.625.617 1.255.953 1.89l7.5 12.196s86.253-.938 125.63 0c0 0 42.188 2.814 90.001 0 0 0 143.684 0 132.192 41.271 0 0-2.812 19.697-43.125 0 0 0-71.367-13.476-177.193-11.256 0 0-114.38 9.38-151.88-6.567 0 0-51.324-70.347 18.75-106.504l-90.003-51.075s-15.939-13.132-65.628-12.194c0 0-15.293-8.676-34.41-26.382a251.752 251.752 0 0 1-19.966-20.726s-22.57-22.915-44.192-24.66c-.02 0-.025-.002-.037-.004-10.76-.855-21.28 3.546-28.666 18.624-.039.08-.08.152-.118.232-.352.727-.696 1.48-1.034 2.258l.019.023a581.598 581.598 0 0 0 25.189 47.867l.16.306s-35.692 5.276-30.067 33.415c0 0 93.754 105.993 150.944 150.076 0 0 131.578 96.317 259.39 91.776 0 0 108.638 83.198 226.977 3.683v-.002c272.348-49.134 478.96-287.482 478.96-574.114" fill="#28aae1"/><g transform="matrix(.26657 0 0 .2667 640 608.845)" clip-path="url(#b)"><path fill="#009b3a" d="M-2100-1470h4200v2940h-4200z"/><path d="M-1743 0L0 1113 1743 0 0-1113z" fill="#fedf00"/><circle r="735" fill="#002776"/><path clip-path="url(#c)" d="M-2205 1470a1785 1785 0 0 1 3570 0h-105a1680 1680 0 1 0-3360 0z" fill="#fff"/><g transform="translate(-420 1470)" fill="#009b3a"><g transform="rotate(-7)"><use transform="translate(0 -1697.5)" xlink:href="#b" width="100%" height="100%"/><use transform="rotate(3 32412.452 848.747)" xlink:href="#i" width="100%" height="100%"/><use transform="rotate(6 16195.115 848.75)" xlink:href="#j" width="100%" height="100%"/><use transform="rotate(9 10784.39 848.75)" xlink:href="#k" width="100%" height="100%"/><use transform="rotate(12 8075.317 848.75)" xlink:href="#l" width="100%" height="100%"/></g><use transform="rotate(9.75 9951.26 848.75)" xlink:href="#m" width="100%" height="100%"/><g transform="rotate(14.5)"><use transform="translate(0 -1697.5)" xlink:href="#a" width="100%" height="100%"/><use transform="rotate(3 32412.452 848.747)" xlink:href="#i" width="100%" height="100%"/><use transform="rotate(6 16195.115 848.75)" xlink:href="#b" width="100%" height="100%"/><use transform="rotate(9 10784.39 848.75)" xlink:href="#n" width="100%" height="100%"/><use transform="rotate(12 8075.317 848.75)" xlink:href="#i" width="100%" height="100%"/><use transform="rotate(15 6446.896 848.75)" xlink:href="#k" width="100%" height="100%"/><use transform="rotate(18 5358.797 848.75)" xlink:href="#o" width="100%" height="100%"/><use transform="rotate(21 4579.445 848.75)" xlink:href="#o" width="100%" height="100%"/><use transform="rotate(24 3993.055 848.75)" xlink:href="#b" width="100%" height="100%"/></g></g><g fill="#fff"><use transform="translate(-600 -132)" xlink:href="#p" width="100%" height="100%"/><use transform="translate(-535 177)" xlink:href="#p" width="100%" height="100%"/><use transform="translate(228 -228)" xlink:href="#p" width="100%" height="100%"/><use transform="translate(515 258)" xlink:href="#p" width="100%" height="100%"/><use transform="translate(617 265)" xlink:href="#q" width="100%" height="100%"/><use transform="translate(545 323)" xlink:href="#r" width="100%" height="100%"/><use transform="translate(368 477)" xlink:href="#r" width="100%" height="100%"/><use transform="translate(367 551)" xlink:href="#q" width="100%" height="100%"/><use transform="translate(441 419)" xlink:href="#q" width="100%" height="100%"/><use transform="translate(500 382)" xlink:href="#r" width="100%" height="100%"/><use transform="translate(365 405)" xlink:href="#q" width="100%" height="100%"/><use transform="translate(-280 30)" xlink:href="#r" width="100%" height="100%"/><use transform="translate(200 -37)" xlink:href="#q" width="100%" height="100%"/><use transform="translate(0 330)" xlink:href="#p" width="100%" height="100%"/><use transform="translate(85 184)" xlink:href="#r" width="100%" height="100%"/><use transform="translate(0 118)" xlink:href="#r" width="100%" height="100%"/><use transform="translate(-74 184)" xlink:href="#q" width="100%" height="100%"/><use transform="translate(-37 235)" xlink:href="#s" width="100%" height="100%"/><use transform="translate(220 495)" xlink:href="#r" width="100%" height="100%"/><use transform="translate(283 430)" xlink:href="#q" width="100%" height="100%"/><use transform="translate(162 412)" xlink:href="#q" width="100%" height="100%"/><use transform="translate(-295 390)" xlink:href="#p" width="100%" height="100%"/><use transform="translate(0 575)" xlink:href="#t" width="100%" height="100%"/></g></g><path d="M1223.118 627.438c0-322.203-261.073-583.4-583.122-583.4-322.047 0-583.12 261.197-583.12 583.4-.079 75.013 13.259 147.535 41.78 217.239 0 0 60.692-76.254 150.696 53.186 0 0 35.004-30.432 148.282 54.192-98.71-73.89-162.6-191.788-162.6-324.617 0-223.76 181.308-405.156 404.962-405.156 223.656 0 404.965 181.395 404.965 405.156 0 69.062-17.278 134.084-47.734 190.986a405.563 405.563 0 0 1-22.306 36.826v.004s-210.865 22.913-289.617 128.903c0 0 .94 15.946-172.505 12.195 0 0-17.631-.535-39.618 1.355l-.51.045c-.472.04-.944.083-1.419.128l-.517.047c-.63.058-1.263.118-1.899.18l-.035.004c-.616.06-1.236.125-1.858.189a352.843 352.843 0 0 0-2.015.218c-.168.017-.333.037-.498.054-.647.074-1.297.148-1.948.226l-.169.02c-.587.07-1.176.141-1.767.215l-.565.072c-.504.064-1.009.13-1.514.197l-.482.064c-.657.087-1.316.177-1.977.27-.082.011-.165.025-.247.037-.573.08-1.147.163-1.72.249a408.432 408.432 0 0 0-2.1.32l-.483.077c-.655.105-1.31.21-1.966.319l-.36.062a216.056 216.056 0 0 0-2.203.383c-.515.091-1.029.185-1.542.278-.153.03-.307.056-.458.085-.653.123-1.305.247-1.956.376l-.39.078c-.527.105-1.054.211-1.579.32l-.58.121c-.518.107-1.033.218-1.546.33-.14.032-.282.06-.422.092-.641.14-1.28.286-1.918.434-.148.033-.294.068-.44.103-.505.116-1.007.237-1.508.36-.189.044-.375.09-.564.136-.52.13-1.042.26-1.56.392-.12.031-.24.06-.358.092-.628.163-1.254.33-1.876.5-.151.04-.301.083-.453.124-.482.132-.96.268-1.438.404l-.552.158c-.523.152-1.042.307-1.559.463l-.29.087c-.604.185-1.205.374-1.801.566-.16.05-.317.103-.475.154-.453.148-.905.297-1.353.45l-.528.178a111.22 111.22 0 0 0-3.478 1.258l-.466.18c-.428.164-.851.332-1.273.5-.165.069-.33.135-.494.201-.519.212-1.034.426-1.543.646-.037.015-.076.03-.115.048a87.26 87.26 0 0 0-1.61.714l-.45.21c-.399.183-.793.37-1.184.558l-.45.218a72.246 72.246 0 0 0-3.445 1.807 58.461 58.461 0 0 0-1.489.86c-.47.28-.935.563-1.392.853l-.093.06c-.424.27-.84.547-1.25.825-.13.087-.258.177-.388.266-.329.228-.654.457-.972.688-.117.086-.236.17-.35.255-.418.31-.83.624-1.233.943-.048.037-.093.076-.141.115a41.396 41.396 0 0 0-2.228 1.918c-.099.09-.198.18-.295.272-.36.34-.712.684-1.052 1.032-.056.057-.107.115-.161.17a33.154 33.154 0 0 0-1.13 1.234 31.82 31.82 0 0 0-.709.84c-.076.096-.155.19-.231.284-.294.372-.58.747-.854 1.128-.054.074-.105.15-.157.226-.22.313-.433.628-.641.949a25.151 25.151 0 0 0-.787 1.297c-.055.095-.111.19-.166.288-.223.404-.437.813-.637 1.227-.045.091-.086.185-.129.276a25.67 25.67 0 0 0-.449 1.005c-.054.133-.109.265-.161.397-.136.342-.264.687-.385 1.035-.035.097-.07.19-.103.287-.146.44-.282.885-.404 1.334-.03.107-.053.216-.08.323a25.314 25.314 0 0 0-.338 1.5c-.074.379-.138.762-.193 1.149-.019.093-.03.185-.042.28-.064.474-.113.955-.15 1.44-.02.125-.02.254-.023.378-.022.375-.04.755-.045 1.136v.463c0 .422 0 .85.025 1.281v.255c.027.513.07 1.033.125 1.558a35.106 35.106 0 0 0 .218 1.64l.079.487c.084.478.175.96.282 1.447.02.068.025.136.04.206a36.44 36.44 0 0 0 .555 2.153c.12.428.25.857.39 1.291a45.111 45.111 0 0 0 .75 2.164c.02.043.032.084.047.127.226.595.472 1.196.73 1.802.075.175.154.35.23.526.2.457.41.917.63 1.38.086.185.171.368.26.55.304.625.617 1.255.953 1.89l7.5 12.196s86.253-.938 125.63 0c0 0 42.188 2.814 90.001 0 0 0 143.684 0 132.192 41.271 0 0-2.812 19.697-43.125 0 0 0-71.367-13.476-177.193-11.256 0 0-114.38 9.38-151.88-6.567 0 0-51.324-70.347 18.75-106.504l-90.003-51.075s-15.939-13.132-65.628-12.194c0 0-15.293-8.676-34.41-26.382a251.752 251.752 0 0 1-19.966-20.726s-22.57-22.915-44.192-24.66c-.02 0-.025-.002-.037-.004-10.76-.855-21.28 3.546-28.666 18.624-.039.08-.08.152-.118.232-.352.727-.696 1.48-1.034 2.258l.019.023a581.598 581.598 0 0 0 25.189 47.867l.16.306s-35.692 5.276-30.067 33.415c0 0 93.754 105.993 150.944 150.076 0 0 131.578 96.317 259.39 91.776 0 0 108.638 83.198 226.977 3.683v-.002c272.348-49.134 478.96-287.482 478.96-574.114" fill="#28aae1"/></svg>