<svg id="Layer_1" xmlns="http://www.w3.org/2000/svg" viewBox="0 0 68 68"><style>.st0{fill:none;stroke:#2896cc;stroke-width:2;stroke-linecap:round;stroke-linejoin:round;stroke-miterlimit:10}</style><circle class="st0" cx="34" cy="34" r="33"/><path class="st0" d="M24 41v6c0 1.7-.9 3-2 3s-2.3-1.3-2.6-2.9L18 40"/><path class="st0" d="M43 19h-.4c-6.3 5.6-14.5 9-23.6 9h-1v12h1c9.5 0 18.2 3.9 24.6 10 .8-.3 1.4-1 1.4-1.9V21c0-1.1-.9-2-2-2zm-2 2v26m-23-7c-3.3 0-6-2.7-6-6s2.7-6 6-6m38 6h-7m7 0h-7m6 9l-6-3m6-15l-6 3"/></svg>