<svg version="1.1" id="Layer_1" xmlns="http://www.w3.org/2000/svg" xmlns:xlink="http://www.w3.org/1999/xlink" x="0px" y="0px" viewBox="0 0 68 68" style="enable-background:new 0 0 68 68;" xml:space="preserve">
<style type="text/css">
	.st0{fill:none;stroke:#2896CC;stroke-width:2;stroke-linecap:round;stroke-linejoin:round;stroke-miterlimit:10;}
</style>
<g>
	<g>
		<circle class="st0" cx="34" cy="34" r="33"/>
	</g>
	<g>
		<g>
			<g>
				<path class="st0" d="M24,41v6c0,1.7-0.9,3-2,3s-2.3-1.3-2.6-2.9L18,40"/>
			</g>
		</g>
		<path class="st0" d="M43,19h-0.4c-6.3,5.6-14.5,9-23.6,9c-0.3,0-0.7,0-1,0v12c0.3,0,0.7,0,1,0c9.5,0,18.2,3.9,24.6,10    c0.8-0.3,1.4-1,1.4-1.9V21C45,19.9,44.1,19,43,19z"/>
		<line class="st0" x1="41" y1="21" x2="41" y2="47"/>
		<path class="st0" d="M18,40c-3.3,0-6-2.7-6-6s2.7-6,6-6"/>
	</g>
	<g>
		<line class="st0" x1="56" y1="34" x2="49" y2="34"/>
		<line class="st0" x1="56" y1="34" x2="49" y2="34"/>
		<line class="st0" x1="55" y1="43" x2="49" y2="40"/>
		<line class="st0" x1="55" y1="25" x2="49" y2="28"/>
	</g>
</g>
</svg>